<svg width="800" height="400" viewBox="0 0 800 400" xmlns="http://www.w3.org/2000/svg">
    <defs>
      <linearGradient id="bg-gradient" x1="0%" y1="0%" x2="100%" y2="100%">
        <stop offset="0%" stop-color="#22c55e" />
        <stop offset="100%" stop-color="#10b981" />
      </linearGradient>
      <radialGradient id="vignette" cx="50%" cy="50%" r="70%" fx="50%" fy="50%">
        <stop offset="0%" stop-color="rgba(0,0,0,0)" />
        <stop offset="100%" stop-color="#1e2b20" />
      </radialGradient>
    </defs><rect width="800" height="400" fill="#1e2b20" /><g stroke="#14b8a6" stroke-width="2" opacity="0.1"><path d="M0,0 L0,0 L20,5.960079923851836 L40,11.682550269259515 L60,16.93927420185106 L80,21.520682726985683 L100,25.244129544236895 L120,27.96117257901679 L140,29.56349189965381 L160,29.987208091245154 L180,29.215428926345854 L200,27.278922804770453 L220,24.254892114587705 L240,20.263895416534528 L260,15.465041154643925 L280,10.04964450467714 L300,4.233600241796016 L320,-1.7512243028274026 L340,-7.666233060804936 L360,-13.275613298845574 L380,-18.355736728281578 L400,-22.704074859237846 L420,-26.147273172407644 L440,-28.548062216685484 L460,-29.810730109003934 L480,-29.88493826507522 L500,-28.767728239894154 L520,-26.503639671604596 L540,-23.182934626679614 L560,-18.937999136169626 L580,-13.93806538241272 L600,-8.382464945967776 L620,-2.492682084524892 L640,3.496476145514809 L660,9.34624090540136 L680,14.823400534158244 L700,19.709597961563674 L720,23.810035915474597 L740,26.96124287434881 L760,29.037590160944596 L780,29.95630036123815" fill="none" /><path d="M0,50 L0,50 L20,55.960079923851836 L40,61.682550269259515 L60,66.93927420185106 L80,71.52068272698568 L100,75.2441295442369 L120,77.96117257901679 L140,79.56349189965381 L160,79.98720809124515 L180,79.21542892634585 L200,77.27892280477045 L220,74.2548921145877 L240,70.26389541653452 L260,65.46504115464393 L280,60.04964450467714 L300,54.23360024179602 L320,48.2487756971726 L340,42.333766939195066 L360,36.72438670115443 L380,31.644263271718422 L400,27.295925140762154 L420,23.852726827592356 L440,21.451937783314516 L460,20.189269890996066 L480,20.11506173492478 L500,21.232271760105846 L520,23.496360328395404 L540,26.817065373320386 L560,31.062000863830374 L580,36.06193461758728 L600,41.617535054032224 L620,47.507317915475106 L640,53.49647614551481 L660,59.34624090540136 L680,64.82340053415824 L700,69.70959796156367 L720,73.8100359154746 L740,76.96124287434881 L760,79.0375901609446 L780,79.95630036123815" fill="none" /><path d="M0,100 L0,100 L20,105.96007992385184 L40,111.68255026925951 L60,116.93927420185106 L80,121.52068272698568 L100,125.2441295442369 L120,127.96117257901679 L140,129.5634918996538 L160,129.98720809124515 L180,129.21542892634585 L200,127.27892280477045 L220,124.2548921145877 L240,120.26389541653452 L260,115.46504115464393 L280,110.04964450467713 L300,104.23360024179601 L320,98.2487756971726 L340,92.33376693919506 L360,86.72438670115443 L380,81.64426327171842 L400,77.29592514076215 L420,73.85272682759236 L440,71.45193778331452 L460,70.18926989099606 L480,70.11506173492478 L500,71.23227176010585 L520,73.49636032839541 L540,76.81706537332039 L560,81.06200086383038 L580,86.06193461758728 L600,91.61753505403223 L620,97.50731791547511 L640,103.4964761455148 L660,109.34624090540136 L680,114.82340053415824 L700,119.70959796156367 L720,123.8100359154746 L740,126.96124287434881 L760,129.0375901609446 L780,129.95630036123816" fill="none" /><path d="M0,150 L0,150 L20,155.96007992385182 L40,161.6825502692595 L60,166.93927420185105 L80,171.52068272698568 L100,175.2441295442369 L120,177.9611725790168 L140,179.5634918996538 L160,179.98720809124515 L180,179.21542892634585 L200,177.27892280477045 L220,174.2548921145877 L240,170.26389541653452 L260,165.46504115464393 L280,160.04964450467713 L300,154.233600241796 L320,148.2487756971726 L340,142.33376693919507 L360,136.72438670115443 L380,131.64426327171842 L400,127.29592514076215 L420,123.85272682759236 L440,121.45193778331452 L460,120.18926989099606 L480,120.11506173492478 L500,121.23227176010585 L520,123.49636032839541 L540,126.81706537332039 L560,131.06200086383038 L580,136.06193461758727 L600,141.61753505403223 L620,147.5073179154751 L640,153.4964761455148 L660,159.34624090540137 L680,164.82340053415825 L700,169.70959796156367 L720,173.8100359154746 L740,176.9612428743488 L760,179.0375901609446 L780,179.95630036123816" fill="none" /><path d="M0,200 L0,200 L20,205.96007992385182 L40,211.6825502692595 L60,216.93927420185105 L80,221.52068272698568 L100,225.2441295442369 L120,227.9611725790168 L140,229.5634918996538 L160,229.98720809124515 L180,229.21542892634585 L200,227.27892280477045 L220,224.2548921145877 L240,220.26389541653452 L260,215.46504115464393 L280,210.04964450467713 L300,204.233600241796 L320,198.2487756971726 L340,192.33376693919507 L360,186.72438670115443 L380,181.64426327171842 L400,177.29592514076217 L420,173.85272682759236 L440,171.45193778331452 L460,170.18926989099606 L480,170.11506173492478 L500,171.23227176010585 L520,173.4963603283954 L540,176.8170653733204 L560,181.06200086383038 L580,186.06193461758727 L600,191.61753505403223 L620,197.5073179154751 L640,203.4964761455148 L660,209.34624090540137 L680,214.82340053415825 L700,219.70959796156367 L720,223.8100359154746 L740,226.9612428743488 L760,229.0375901609446 L780,229.95630036123816" fill="none" /><path d="M0,250 L0,250 L20,255.96007992385182 L40,261.68255026925954 L60,266.93927420185105 L80,271.5206827269857 L100,275.2441295442369 L120,277.96117257901676 L140,279.5634918996538 L160,279.9872080912452 L180,279.21542892634585 L200,277.27892280477045 L220,274.25489211458773 L240,270.2638954165345 L260,265.4650411546439 L280,260.04964450467713 L300,254.233600241796 L320,248.2487756971726 L340,242.33376693919507 L360,236.72438670115443 L380,231.64426327171842 L400,227.29592514076217 L420,223.85272682759236 L440,221.45193778331452 L460,220.18926989099606 L480,220.11506173492478 L500,221.23227176010585 L520,223.4963603283954 L540,226.8170653733204 L560,231.06200086383038 L580,236.06193461758727 L600,241.61753505403223 L620,247.5073179154751 L640,253.4964761455148 L660,259.3462409054014 L680,264.8234005341582 L700,269.70959796156365 L720,273.8100359154746 L740,276.9612428743488 L760,279.0375901609446 L780,279.95630036123816" fill="none" /><path d="M0,300 L0,300 L20,305.9600799238518 L40,311.68255026925954 L60,316.93927420185105 L80,321.5206827269857 L100,325.2441295442369 L120,327.96117257901676 L140,329.5634918996538 L160,329.9872080912452 L180,329.21542892634585 L200,327.27892280477045 L220,324.25489211458773 L240,320.2638954165345 L260,315.4650411546439 L280,310.04964450467713 L300,304.233600241796 L320,298.2487756971726 L340,292.3337669391951 L360,286.7243867011544 L380,281.64426327171844 L400,277.29592514076217 L420,273.85272682759233 L440,271.4519377833145 L460,270.18926989099606 L480,270.1150617349248 L500,271.23227176010585 L520,273.4963603283954 L540,276.81706537332036 L560,281.06200086383035 L580,286.06193461758727 L600,291.6175350540322 L620,297.5073179154751 L640,303.4964761455148 L660,309.3462409054014 L680,314.8234005341582 L700,319.70959796156365 L720,323.8100359154746 L740,326.9612428743488 L760,329.0375901609446 L780,329.95630036123816" fill="none" /><path d="M0,350 L0,350 L20,355.9600799238518 L40,361.68255026925954 L60,366.93927420185105 L80,371.5206827269857 L100,375.2441295442369 L120,377.96117257901676 L140,379.5634918996538 L160,379.9872080912452 L180,379.21542892634585 L200,377.27892280477045 L220,374.25489211458773 L240,370.2638954165345 L260,365.4650411546439 L280,360.04964450467713 L300,354.233600241796 L320,348.2487756971726 L340,342.3337669391951 L360,336.7243867011544 L380,331.64426327171844 L400,327.29592514076217 L420,323.85272682759233 L440,321.4519377833145 L460,320.18926989099606 L480,320.1150617349248 L500,321.23227176010585 L520,323.4963603283954 L540,326.81706537332036 L560,331.06200086383035 L580,336.06193461758727 L600,341.6175350540322 L620,347.5073179154751 L640,353.4964761455148 L660,359.3462409054014 L680,364.8234005341582 L700,369.70959796156365 L720,373.8100359154746 L740,376.9612428743488 L760,379.0375901609446 L780,379.95630036123816" fill="none" /></g><circle cx="400" cy="133.33333333333334" r="40" fill="#14b8a6" opacity="0.8" /><rect width="800" height="400" fill="url(#vignette)" opacity="0.5" />
    <text x="400" y="300" font-family="Arial" font-size="36" font-weight="bold" fill="white" text-anchor="middle">
      Industrial Equipment Monitoring System
    </text>
  
    <line x1="300" y1="330" x2="500" y2="330" 
          stroke="#14b8a6" stroke-width="3" />
  
    <rect x="340" y="350" width="120" height="30" rx="15" 
          fill="#14b8a6" opacity="0.8" />
    <text x="400" y="370" font-family="Arial" font-size="14" 
          fill="white" text-anchor="middle">
      IOT
    </text>
  </svg>