<svg width="800" height="400" viewBox="0 0 800 400" xmlns="http://www.w3.org/2000/svg">
    <defs>
      <linearGradient id="bg-gradient" x1="0%" y1="0%" x2="100%" y2="100%">
        <stop offset="0%" stop-color="#8b5cf6" />
        <stop offset="100%" stop-color="#6366f1" />
      </linearGradient>
      <radialGradient id="vignette" cx="50%" cy="50%" r="70%" fx="50%" fy="50%">
        <stop offset="0%" stop-color="rgba(0,0,0,0)" />
        <stop offset="100%" stop-color="#1e1e2e" />
      </radialGradient>
    </defs><rect width="800" height="400" fill="#1e1e2e" /><g stroke="#a855f7" stroke-width="1" opacity="0.1"><line x1="0" y1="0" x2="0" y2="400" /><line x1="30" y1="0" x2="30" y2="400" /><line x1="60" y1="0" x2="60" y2="400" /><line x1="90" y1="0" x2="90" y2="400" /><line x1="120" y1="0" x2="120" y2="400" /><line x1="150" y1="0" x2="150" y2="400" /><line x1="180" y1="0" x2="180" y2="400" /><line x1="210" y1="0" x2="210" y2="400" /><line x1="240" y1="0" x2="240" y2="400" /><line x1="270" y1="0" x2="270" y2="400" /><line x1="300" y1="0" x2="300" y2="400" /><line x1="330" y1="0" x2="330" y2="400" /><line x1="360" y1="0" x2="360" y2="400" /><line x1="390" y1="0" x2="390" y2="400" /><line x1="420" y1="0" x2="420" y2="400" /><line x1="450" y1="0" x2="450" y2="400" /><line x1="480" y1="0" x2="480" y2="400" /><line x1="510" y1="0" x2="510" y2="400" /><line x1="540" y1="0" x2="540" y2="400" /><line x1="570" y1="0" x2="570" y2="400" /><line x1="600" y1="0" x2="600" y2="400" /><line x1="630" y1="0" x2="630" y2="400" /><line x1="660" y1="0" x2="660" y2="400" /><line x1="690" y1="0" x2="690" y2="400" /><line x1="720" y1="0" x2="720" y2="400" /><line x1="750" y1="0" x2="750" y2="400" /><line x1="780" y1="0" x2="780" y2="400" /><line x1="0" y1="0" x2="800" y2="0" /><line x1="0" y1="30" x2="800" y2="30" /><line x1="0" y1="60" x2="800" y2="60" /><line x1="0" y1="90" x2="800" y2="90" /><line x1="0" y1="120" x2="800" y2="120" /><line x1="0" y1="150" x2="800" y2="150" /><line x1="0" y1="180" x2="800" y2="180" /><line x1="0" y1="210" x2="800" y2="210" /><line x1="0" y1="240" x2="800" y2="240" /><line x1="0" y1="270" x2="800" y2="270" /><line x1="0" y1="300" x2="800" y2="300" /><line x1="0" y1="330" x2="800" y2="330" /><line x1="0" y1="360" x2="800" y2="360" /><line x1="0" y1="390" x2="800" y2="390" /></g><circle cx="400" cy="133.33333333333334" r="40" fill="#a855f7" opacity="0.8" /><rect width="800" height="400" fill="url(#vignette)" opacity="0.5" />
    <text x="400" y="300" font-family="Arial" font-size="36" font-weight="bold" fill="white" text-anchor="middle">
      E-Commerce Platform with AI Recommendations
    </text>
  
    <line x1="300" y1="330" x2="500" y2="330" 
          stroke="#a855f7" stroke-width="3" />
  
    <rect x="340" y="350" width="120" height="30" rx="15" 
          fill="#a855f7" opacity="0.8" />
    <text x="400" y="370" font-family="Arial" font-size="14" 
          fill="white" text-anchor="middle">
      WEB
    </text>
  </svg>