<svg width="800" height="400" viewBox="0 0 800 400" xmlns="http://www.w3.org/2000/svg">
    <defs>
      <linearGradient id="bg-gradient" x1="0%" y1="0%" x2="100%" y2="100%">
        <stop offset="0%" stop-color="#8b5cf6" />
        <stop offset="100%" stop-color="#6366f1" />
      </linearGradient>
      <radialGradient id="vignette" cx="50%" cy="50%" r="70%" fx="50%" fy="50%">
        <stop offset="0%" stop-color="rgba(0,0,0,0)" />
        <stop offset="100%" stop-color="#1e1e2e" />
      </radialGradient>
    </defs><rect width="800" height="400" fill="#1e1e2e" /><g stroke="#a855f7" stroke-width="1" opacity="0.15"><line x1="0" y1="0" x2="800" y2="0" /><line x1="0" y1="0" x2="400" y2="200" /><line x1="800" y1="0" x2="400" y2="200" /><line x1="0" y1="40" x2="800" y2="40" /><line x1="0" y1="40" x2="400" y2="200" /><line x1="800" y1="40" x2="400" y2="200" /><line x1="0" y1="80" x2="800" y2="80" /><line x1="0" y1="80" x2="400" y2="200" /><line x1="800" y1="80" x2="400" y2="200" /><line x1="0" y1="120" x2="800" y2="120" /><line x1="0" y1="120" x2="400" y2="200" /><line x1="800" y1="120" x2="400" y2="200" /><line x1="0" y1="160" x2="800" y2="160" /><line x1="0" y1="160" x2="400" y2="200" /><line x1="800" y1="160" x2="400" y2="200" /><line x1="0" y1="200" x2="800" y2="200" /><line x1="0" y1="200" x2="400" y2="200" /><line x1="800" y1="200" x2="400" y2="200" /><line x1="0" y1="240" x2="800" y2="240" /><line x1="0" y1="240" x2="400" y2="200" /><line x1="800" y1="240" x2="400" y2="200" /><line x1="0" y1="280" x2="800" y2="280" /><line x1="0" y1="280" x2="400" y2="200" /><line x1="800" y1="280" x2="400" y2="200" /><line x1="0" y1="320" x2="800" y2="320" /><line x1="0" y1="320" x2="400" y2="200" /><line x1="800" y1="320" x2="400" y2="200" /><line x1="0" y1="360" x2="800" y2="360" /><line x1="0" y1="360" x2="400" y2="200" /><line x1="800" y1="360" x2="400" y2="200" /><line x1="0" y1="400" x2="800" y2="400" /><line x1="0" y1="400" x2="400" y2="200" /><line x1="800" y1="400" x2="400" y2="200" /><line x1="0" y1="0" x2="0" y2="400" /><line x1="80" y1="0" x2="80" y2="400" /><line x1="160" y1="0" x2="160" y2="400" /><line x1="240" y1="0" x2="240" y2="400" /><line x1="320" y1="0" x2="320" y2="400" /><line x1="400" y1="0" x2="400" y2="400" /><line x1="480" y1="0" x2="480" y2="400" /><line x1="560" y1="0" x2="560" y2="400" /><line x1="640" y1="0" x2="640" y2="400" /><line x1="720" y1="0" x2="720" y2="400" /><line x1="800" y1="0" x2="800" y2="400" /></g><circle cx="400" cy="133.33333333333334" r="40" fill="#a855f7" opacity="0.8" /><rect width="800" height="400" fill="url(#vignette)" opacity="0.5" />
    <text x="400" y="300" font-family="Arial" font-size="36" font-weight="bold" fill="white" text-anchor="middle">
      Real Estate Virtual Tour Platform
    </text>
  
    <line x1="300" y1="330" x2="500" y2="330" 
          stroke="#a855f7" stroke-width="3" />
  
    <rect x="340" y="350" width="120" height="30" rx="15" 
          fill="#a855f7" opacity="0.8" />
    <text x="400" y="370" font-family="Arial" font-size="14" 
          fill="white" text-anchor="middle">
      WEB
    </text>
  </svg>